<svg xmlns="http://www.w3.org/2000/svg" viewBox="0 0 509.94 795.87">
  <path d="M30.23 0h449.48c16.68 0 30.23 13.54 30.23 30.23v276.35H0V30.23C0 13.54 13.54 0 30.23 0Z" style="fill:#17164b"/>
  <path d="M0 306.58h509.94V765.8c0 16.59-13.47 30.07-30.07 30.07H30.07C13.47 795.87 0 782.4 0 765.8V306.58Z" style="fill:#34416d"/>
  <path style="fill:#fdfdfd" d="m0 306.58 52.65-102.97 24-12.38 3.09-12.78 15.49-21.68 66.19-126.96 78.19 13.16 45.29 88.64 33.68-16.64 53.03 56.9 12 .78 8.13 1.16 6.97 8.9 51.1 80.9 48 12.39 12.13 30.58H0z"/>
  <path style="fill:#eff6fc" d="m0 306.58 59.81-88.26 12-7.74 34.84 4.45 72.58-168.97 44.71 10.26 53.61 106.84 8.13-30.58 31.55-17.23 35.8 52.65 6.78 15.29 14.9 6.58 4.84 4.45 1.74 12.58 5.42 17.42L408.39 264l43.74 8.71 17.03 33.87H0z"/>
  <path style="fill:#c6dced" d="m0 306.58 74.52-55.74h29.61l23.61 7.74 33.29-69.87 29.23-31.74 12-4.07-11.61 67.94-4.07 31.55 6 1.35 44.71-53.22 16.65.19 17.41 20.71 21.49 5.61 14.51-14.71 15.3-3.09 33.29 26.71 19.54 44.12 48.39 1.75 39.1 24.77H0z"/>
  <path fill="#2433ab" d="m0 306.58 6.19 40.26 54.2 22.45 41.03 108.39 11.61 3.87h11.62l11.61 27.1 11.61 17.03L202.84 576l28.64 40.26 34.07 89.8 5.42-6.96 3.87 17.8h9.29l30.97-65.03 18.58-24 30.97-52.64 31.74-10.84 43.35-120.78 70.2-137.03H0z"/>
  <path fill="#00025F" fill-opacity="0.2" d="M0 306.58h509.94v460.13c0 16.11-13.06 29.16-29.16 29.16H29.16C13.06 795.87 0 782.81 0 766.71V306.58Z"/>
  <path fill="#00025F" fill-opacity="0.2" d="M0 422.81s58.32-23.12 133.68 0 100.13 7.85 128 0 71.23-22.09 140.39 0 107.87 0 107.87 0v343.76c0 16.18-13.12 29.29-29.29 29.29H29.29C13.12 795.87 0 782.76 0 766.58V422.81Z"/>
  <path fill="#00025F" fill-opacity="0.2" d="M0 520.26s12.9-4.34 39.74 18.99 84.65 0 91.87 0 53.68-21.26 123.35 0 108.69 11.4 131.61 0 87.74-22.3 123.35 0v227.2c0 16.25-13.17 29.42-29.42 29.42H29.42C13.17 795.87 0 782.7 0 766.45V520.26Z"/>
  <path fill="#00025F" fill-opacity="0.2" d="M0 667.87s32.52 1.45 64.52-12.18 72.26-8.05 98.06 0 69.16 31.48 136.26 2.22 114.58-2.22 114.58-2.22 47.48 29.11 96.52 0v110.24c0 16.53-13.4 29.94-29.94 29.94H29.94C13.4 795.87 0 782.47 0 765.93v-98.06Z"/>
</svg>
