<?xml version="1.0" encoding="UTF-8"?><svg id="Layer_1" xmlns="http://www.w3.org/2000/svg" viewBox="0 0 509.94 795.87"><defs><style>.cls-1{fill:#00025f;opacity:.2;}.cls-2{fill:#eff6fc;}.cls-3{fill:#c6dced;}.cls-4{fill:#fdfdfd;}.cls-5{fill:#17164b;}.cls-6{fill:#34416d;}.cls-7{fill:#2433ab;}</style></defs><path class="cls-5" d="M30.23,0H479.71c16.68,0,30.23,13.54,30.23,30.23V306.58H0V30.23C0,13.54,13.54,0,30.23,0Z"/><path class="cls-6" d="M0,306.58H509.94v459.22c0,16.59-13.47,30.07-30.07,30.07H30.07C13.47,795.87,0,782.4,0,765.8V306.58H0Z"/><polygon class="cls-4" points="0 306.58 52.65 203.61 76.65 191.23 79.74 178.45 95.23 156.77 161.42 29.81 239.61 42.97 284.9 131.61 318.58 114.97 371.61 171.87 383.61 172.65 391.74 173.81 398.71 182.71 449.81 263.61 497.81 276 509.94 306.58 0 306.58"/><polygon class="cls-2" points="0 306.58 59.81 218.32 71.81 210.58 106.65 215.03 179.23 46.06 223.94 56.32 277.55 163.16 285.68 132.58 317.23 115.35 353.03 168 359.81 183.29 374.71 189.87 379.55 194.32 381.29 206.9 386.71 224.32 408.39 264 452.13 272.71 469.16 306.58 0 306.58"/><polygon class="cls-3" points="0 306.58 74.52 250.84 104.13 250.84 127.74 258.58 161.03 188.71 190.26 156.97 202.26 152.9 190.65 220.84 186.58 252.39 192.58 253.74 237.29 200.52 253.94 200.71 271.35 221.42 292.84 227.03 307.35 212.32 322.65 209.23 355.94 235.94 375.48 280.06 423.87 281.81 462.97 306.58 0 306.58"/><polygon class="cls-7" points="0 306.58 6.19 346.84 60.39 369.29 101.42 477.68 113.03 481.55 124.65 481.55 136.26 508.65 147.87 525.68 202.84 576 231.48 616.26 265.55 706.06 270.97 699.1 274.84 716.9 284.13 716.9 315.1 651.87 333.68 627.87 364.65 575.23 396.39 564.39 439.74 443.61 509.94 306.58 0 306.58"/><path id="Shading_1" class="cls-1" d="M0,422.81s58.32-23.12,133.68,0,100.13,7.85,128,0,71.23-22.09,140.39,0,107.87,0,107.87,0v343.76c0,16.18-13.12,29.29-29.29,29.29H29.29C13.12,795.87,0,782.76,0,766.58V422.81Z"/><path id="Shading_2" class="cls-1" d="M0,520.26s12.9-4.34,39.74,18.99,84.65,0,91.87,0,53.68-21.26,123.35,0,108.69,11.4,131.61,0,87.74-22.3,123.35,0v227.2c0,16.25-13.17,29.42-29.42,29.42H29.42C13.17,795.87,0,782.7,0,766.45v-246.19Z"/><path id="Shading_3" class="cls-1" d="M0,667.87s32.52,1.45,64.52-12.18,72.26-8.05,98.06,0,69.16,31.48,136.26,2.22,114.58-2.22,114.58-2.22c0,0,47.48,29.11,96.52,0v110.24c0,16.53-13.4,29.94-29.94,29.94H29.94C13.4,795.87,0,782.47,0,765.93v-98.06Z"/><path class="cls-1" d="M0,306.58H509.94v460.13c0,16.11-13.06,29.16-29.16,29.16H29.16C13.06,795.87,0,782.81,0,766.71V306.58Z"/></svg>