<svg id="Layer_1" xmlns="http://www.w3.org/2000/svg" viewBox="0 0 768 768">
  <defs>
    <style>
      .cls-1{fill:#fff}
    </style>
  </defs>
  <path style="fill:#1a1a1a" d="M0 0h768v768H0z"/>
  <path d="M326.02 379.48v60.93s-14.7 22.35-19.9 61.24c0 0-4.9 28.48 3.06 49.6 0 0-21.74 41.34-74.71 48.38-52.97 7.04-81.75-15.31-104.41-33.99-22.66-18.68-51.44-79-48.68-134.72 2.76-55.73 17.15-87.88 17.15-87.88s-.31-92.16 53.28-178.2c0 0 40.11-67.67 124.31-100.12C360.32 32.26 455.24 48.49 470.25 54c15 5.51 58.48 9.49 121.56 66.14 63.08 56.65 83.28 151.87 87.57 214.03 0 0 37.05 64.91 12.55 159.22-24.5 94.31-102.88 105.33-107.47 105.94-4.59.61-77.16 15.92-115.43-54.2 0 0 2.76-7.96 2.76-21.74 0 0 51.44-20.82 92.78-75.63 0 0 38.89-47.46 37.36-116.05 0 0-2.76-44.7-12.86-65.52 0 0 14.7 3.06 18.37 4.59 0 0-12.55-58.18-54.5-102.57-41.95-44.4-104.72-62.46-165.96-62.16-61.24.31-107.47 19.9-143.91 48.38 0 0-51.13 37.36-70.73 116.97 0 0 10.56-3.83 15.16-3.83 0 0-23.27 51.29-22.51 83.9 0 0-2.14 29.09 21.89 54.96s51.9 26.49 57.1 26.94c0 0 24.8 2.91 48.38-12.4 23.58-15.31 33.68-41.49 33.68-41.49Z" style="fill:#1db954"/>
  <ellipse class="cls-1" cx="388.13" cy="526.63" rx="59.59" ry="57.62"/>
  <ellipse class="cls-1" cx="248.28" cy="352.1" rx="59.59" ry="57.62"/>
  <ellipse class="cls-1" cx="386.77" cy="668.62" rx="59.59" ry="57.62"/>
  <path class="cls-1" d="m248.28 352.1-57.61-6.15c-.56 0-1.01-.45-.94-1.01 1.74-14.81 24.68-181.05 191.7-188.52 0 0 101.53-3.86 159.83 74.4 0 0 53.74 60.17 31.69 142.84s-80.38 109.77-96.91 120.79l-14.54 6.89s-7.95 3.65-11.18 9.19c0 0-3.69 6.18-2.61 16.1H328.53s-4.21-52.23 32.99-95.1c0 0 22.05-28.17 55.42-40.11 0 0 56.8-26.79 39.5-72.72 0 0-4.9-33.37-63.08-42.87 0 0-39.8-8.42-66.44 32.3 0 0-15.32 20.36-19.29 48.99l-59.36-5.03Z"/>
</svg>
